<svg xmlns="http://www.w3.org/2000/svg" viewBox="0 0 800 200">
  <defs>
    <linearGradient id="bgGradient" x1="0%" y1="0%" x2="100%" y2="100%">
      <stop offset="0%" style="stop-color:#E0F7FA;stop-opacity:1" />
      <stop offset="50%" style="stop-color:#B2EBF2;stop-opacity:0.7" />
      <stop offset="100%" style="stop-color:#E0F7FA;stop-opacity:0.1" />
    </linearGradient>
    <linearGradient id="waveGradient1" x1="0%" y1="0%" x2="100%" y2="0%">
      <stop offset="0%" style="stop-color:#4DD0E1;stop-opacity:0.8" />
      <stop offset="50%" style="stop-color:#26C6DA;stop-opacity:0.6" />
      <stop offset="100%" style="stop-color:#00BCD4;stop-opacity:0.4" />
    </linearGradient>
    <linearGradient id="waveGradient2" x1="0%" y1="0%" x2="100%" y2="0%">
      <stop offset="0%" style="stop-color:#80DEEA;stop-opacity:0.6" />
      <stop offset="50%" style="stop-color:#4DD0E1;stop-opacity:0.4" />
      <stop offset="100%" style="stop-color:#26C6DA;stop-opacity:0.2" />
    </linearGradient>
    <linearGradient id="underwaterGradient" x1="0%" y1="0%" x2="100%" y2="100%">
      <stop offset="0%" style="stop-color:#006064;stop-opacity:0.3" />
      <stop offset="100%" style="stop-color:#006064;stop-opacity:0.1" />
    </linearGradient>
    <linearGradient id="textAreaGradient" x1="0%" y1="0%" x2="100%" y2="100%">
      <stop offset="0%" style="stop-color:#B2EBF2;stop-opacity:0.2" />
      <stop offset="100%" style="stop-color:#E0F7FA;stop-opacity:0.05" />
    </linearGradient>
  </defs>
  
  <rect width="800" height="200" fill="url(#bgGradient)" />
  
  <!-- Main content -->
  <g>
    <!-- Upper water surface -->
    <path d="M0 60 C 100 40, 200 80, 300 60 S 500 40, 700 60 T 800 40 V 0 H 0 Z" fill="url(#waveGradient1)" />
    <path d="M0 80 C 100 60, 200 100, 300 80 S 500 60, 700 80 T 800 60 V 0 H 0 Z" fill="url(#waveGradient2)" opacity="0.7" />
    <path d="M0 100 C 100 80, 200 120, 300 100 S 500 80, 700 100 T 800 80 V 0 H 0 Z" fill="url(#waveGradient1)" opacity="0.5" />
    
    <!-- Underwater elements -->
    <g>
      <path d="M0 100 C 100 120, 200 100, 300 120 S 500 100, 600 110 Q 700 120, 800 100 V 200 H 0 Z" fill="url(#underwaterGradient)" />
      
      <!-- Seaweed-like elements -->
      <path d="M50,200 C 70,180 60,160 80,140 C 100,120 90,100 110,80" fill="none" stroke="#004D40" stroke-width="2" opacity="0.3" />
      <path d="M80,200 C 100,170 90,140 110,110 C 130,80 120,50 140,20" fill="none" stroke="#004D40" stroke-width="2" opacity="0.2" />
      <path d="M20,200 C 40,180 30,160 50,140 C 70,120 60,100 80,80" fill="none" stroke="#00695C" stroke-width="1.5" opacity="0.3" />
      
      <!-- Fish-like shapes -->
      <path d="M200,150 C 220,145 240,155 250,150 L 260,155 L 250,150 L 260,145 Z" fill="#26A69A" opacity="0.6" />
      <path d="M300,170 C 320,165 340,175 350,170 L 360,175 L 350,170 L 360,165 Z" fill="#26A69A" opacity="0.5" />
      
      <!-- Light beams -->
      <path d="M100,100 L 150,200" stroke="#E0F7FA" stroke-width="0.5" opacity="0.2" />
      <path d="M250,100 L 300,200" stroke="#E0F7FA" stroke-width="0.5" opacity="0.2" />
      <path d="M400,100 L 450,200" stroke="#E0F7FA" stroke-width="0.5" opacity="0.1" />
    </g>
    
    <!-- Upper layer elements -->
    <g>
      <circle cx="150" cy="50" r="25" fill="url(#waveGradient2)" opacity="0.8" />
      <circle cx="150" cy="50" r="20" fill="#FFD54F" opacity="0.8" />
      
      <g opacity="0.7">
        <circle cx="50" cy="30" r="1.5" fill="#FFFFFF" />
        <circle cx="80" cy="50" r="1" fill="#FFFFFF" />
        <circle cx="110" cy="20" r="1.5" fill="#FFFFFF" />
        <circle cx="140" cy="40" r="1" fill="#FFFFFF" />
        <circle cx="170" cy="60" r="1.5" fill="#FFFFFF" />
      </g>
      
      <path d="M20,40 Q 70,10 120,40 T 220,40" fill="none" stroke="#80DEEA" stroke-width="0.5" />
      <path d="M40,50 Q 90,20 140,50 T 240,50" fill="none" stroke="#4DD0E1" stroke-width="0.5" />
      <path d="M60,60 Q 110,30 160,60 T 260,60" fill="none" stroke="#26C6DA" stroke-width="0.5" />
    </g>
  </g>
  
  <!-- Text area with curved border and gradient -->
  <path d="M400 0 Q 600 0, 800 200 H 800 V 0 H 400 Z" fill="url(#textAreaGradient)" />
  
  <!-- Lower right subtle waves -->
  <g opacity="0.1">
    <path d="M600,150 Q 650,130 700,150 T 800,150" fill="none" stroke="#B2EBF2" stroke-width="0.5" />
    <path d="M620,160 Q 670,140 720,160 T 820,160" fill="none" stroke="#B2EBF2" stroke-width="0.5" />
    <path d="M640,170 Q 690,150 740,170 T 840,170" fill="none" stroke="#B2EBF2" stroke-width="0.5" />
  </g>
</svg>
